PathFileType	4	(X/Y/Z)	Patient4_TMGait_0pt8_01_left_16.trc.trc
DataRate	CameraRate	NumFrames	NumMarkers	Units	OrigDataRate	OrigDataStartFrame	OrigNumFrames
88.050314465409	88.050314465409	6	33	mm	88.050314465409	1	       141
Frame#	Time	Sacral			L.Shoulder			Chest			R.Shoulder			Neck			R.ASIS			L.ASIS			R.Thigh.Superior			R.Thigh.Lateral			R.Thigh.Inferior			R.Patella			L.Thigh.Superior			L.Thigh.Lateral			L.Thigh.Inferior			L.Patella			L.Shank.Superior			L.Shank.Lateral			L.Shank.Inferior			R.Shank.Superior			R.Shank.Lateral			R.Shank.Inferior			R.Heel			R.Midfoot.Superior			R.Midfoot.Lateral			R.Toe			L.Heel			L.Midfoot.Lateral			L.Midfoot.Superior			L.Toe			L.Elbow			L.Wrist			R.Elbow			R.Wrist			
		X1	Y1	Z1	X2	Y2	Z2	X3	Y3	Z3	X4	Y4	Z4	X5	Y5	Z5	X6	Y6	Z6	X7	Y7	Z7	X8	Y8	Z8	X9	Y9	Z9	X10	Y10	Z10	X11	Y11	Z11	X12	Y12	Z12	X13	Y13	Z13	X14	Y14	Z14	X15	Y15	Z15	X16	Y16	Z16	X17	Y17	Z17	X18	Y18	Z18	X19	Y19	Z19	X20	Y20	Z20	X21	Y21	Z21	X22	Y22	Z22	X23	Y23	Z23	X24	Y24	Z24	X25	Y25	Z25	X26	Y26	Z26	X27	Y27	Z27	X28	Y28	Z28	X29	Y29	Z29	X30	Y30	Z30	X31	Y31	Z31	X32	Y32	Z32	X33	Y33	Z33	

1	17.120000000000	907.066857621610	1007.229917751449	502.563797894384	1065.652278121225	1439.538927502846	315.276745665740	1185.204440798424	1364.419456521468	462.929863759601	1122.572284415673	1433.963239886183	646.954018814185	1072.195230720300	1497.284884336565	471.441359501069	1140.799339211157	945.710865682512	601.820535352717	1106.442330672129	965.778945628115	329.649578444368	1175.211283729394	742.410315971678	573.741820482087	1090.500893354732	634.043007877554	631.948725775049	1166.108814628398	581.079612835504	552.019881364780	1163.224135580085	493.192008127728	556.387024641995	1198.963868522530	792.287593205617	351.132870869054	1156.402289655532	663.484602496556	272.883878856701	1268.851058416305	606.427928250726	323.113231331576	1286.537226924296	517.109494839418	313.950455883106	1223.107367038006	445.629438526292	311.876577980263	1080.320068940272	396.661677719794	272.812158758114	1078.579857556634	266.196145381301	327.576723590495	1134.866842708500	405.333927404430	561.403374528395	1061.286837792995	300.345128035758	617.982335023593	1105.569784269670	206.621729430970	553.413842517222	973.106344691205	43.308018872776	512.034679256326	1142.491338716926	97.757865873126	560.105155532143	1051.841746956397	37.206602099834	592.191876159419	1260.347687248131	43.459566920164	594.231863222975	894.625374814062	190.988170483063	377.987160324121	949.072261819350	149.208769458348	293.213050455245	1055.395711689891	162.638776033164	308.093213093699	1136.661308693994	55.733360722417	272.166341066481	1026.938203617620	1086.670512236028	206.425476486727	1220.436615239903	908.496229160373	205.578532382636	1110.193785574469	1083.905435279047	769.092275841604	1238.656181231160	856.209250125295	760.592480722046	
2	17.131357142857	906.142087313138	1007.868666923613	504.362615545467	1063.563687658325	1439.446754229296	316.316540534470	1184.212914679705	1364.758841698539	463.234011752371	1122.910566166630	1434.526172262326	647.623466584768	1071.242951542931	1497.553474310816	472.356141044115	1140.316727639110	945.822231726073	602.575727377054	1104.742332399643	966.361069248711	330.299710531690	1171.194719097899	741.702002692379	573.794094953071	1085.086202067146	634.278408474027	632.802711100098	1159.095029340205	580.267402399372	552.663359667107	1154.894847601738	492.874614762389	557.075600013253	1198.286633396085	795.221100325717	352.087777265647	1157.757222366444	665.619076865028	273.046545109279	1270.692704470633	610.438675775635	323.233812946845	1290.175238797541	522.371592023857	313.725968826312	1230.570716594781	449.202440193017	311.147044179151	1091.594879688232	391.842560344186	272.733924914449	1098.974352094210	261.661592577772	325.933708099004	1126.361988514522	405.243770339665	562.013679051729	1052.444601302897	300.432749680104	618.616614081159	1096.379145318467	206.688632945470	553.867022185724	963.500003084404	43.444130870711	512.134689093906	1132.996243261838	97.716398340473	560.218733583552	1042.259433602991	37.238523588064	592.263189650363	1250.760175230306	43.179459546435	594.244331970498	922.197947213529	174.571091312390	377.281274005769	977.670630622693	137.379055047944	291.496487491497	1082.375263955101	157.523939221441	305.454094966523	1169.438579486390	57.182575548895	267.426413666536	1020.697031411724	1086.099725574114	210.075656459961	1195.398702288641	893.314722287257	208.813834063717	1123.534778531859	1085.145193317856	769.944354539606	1265.793579326684	868.064544037740	758.360804297035	
3	17.142714285714	905.234136274397	1008.466946679004	506.093642426854	1061.541420154921	1439.322494336546	317.323260460078	1183.246589785015	1365.053224278904	463.533908473109	1123.231366166368	1435.047367808087	648.273492169828	1070.309015816093	1497.783783743441	473.247578288092	1139.824760210143	945.912023598829	603.307395149470	1103.087775703508	966.869677273563	330.930912685883	1167.226596247182	740.988271343119	573.882006081178	1079.707042972940	634.505411690159	633.648034903718	1152.164712376783	579.458928280271	553.329783096571	1146.666610240138	492.557280231345	557.775051033579	1197.563936841217	797.952547695481	353.013805778180	1158.980198857003	667.589076285823	273.235339714975	1272.337626171787	614.184600719449	323.433839344672	1293.573980883974	527.409310501004	313.548614069768	1237.792377078628	452.639188951493	310.457905517857	1102.752490764921	386.965956733899	272.620935746061	1119.191821873518	257.199873112545	324.286155184217	1117.950341694364	405.153007599079	562.617509803440	1043.697402314028	300.519483296031	619.241012421947	1087.302796730897	206.756711513900	554.312318626397	954.022513514720	43.571988772384	512.238691740095	1123.622082861581	97.678641664759	560.333500635742	1032.799311111086	37.268588868635	592.329652414451	1241.296461269209	42.909296683872	594.261976613616	949.729852763609	158.381973502806	376.497488390393	1006.157182722428	125.783649011768	289.713237431752	1109.162456753144	152.576988737144	302.800846282104	1201.895641447111	58.837706515618	262.677895151538	1014.570552335560	1085.523646331454	213.607135753671	1170.533679989131	878.709256464115	211.984878420593	1136.674322695700	1086.421271391199	770.733885602685	1292.461627498144	880.017219545854	756.074081128068	
4	17.154071428571	904.360810297378	1008.977768931358	507.687928896958	1059.651757149211	1439.124739871400	318.258108212192	1182.329253815175	1365.249374132246	463.821113227898	1123.512147491809	1435.477593414591	648.879082678706	1069.408700808026	1497.928117002452	474.088987232973	1139.311291624684	945.947296799435	604.001177044155	1101.532858285941	967.217269906020	331.526724896998	1163.326751359962	740.245581457426	574.048494211907	1074.353882260581	634.709623355963	634.478623186823	1145.342707647588	578.646553900655	554.040333644209	1138.571784448854	492.228373663337	558.494974800807	1196.733151072004	800.251023579429	353.892402084872	1159.919811864924	669.213094313475	273.458434804750	1273.566899505443	617.377981886868	323.784331620107	1296.476356091119	531.997685001516	313.489693526964	1244.546207490733	455.817606969781	309.861069831543	1113.765536700967	381.973394277237	272.427443673090	1139.174095244188	252.925487740581	322.636957182123	1109.645991838813	405.055325347725	563.211872189680	1035.053574847491	300.604628235121	619.849228028053	1078.356446499845	206.823387832568	554.744315415031	944.690138478391	43.683369520409	512.350631372722	1114.380272890106	97.646935044893	560.450303705678	1023.473645430150	37.294415999972	592.389004125184	1231.970216845807	42.657009729935	594.288549990600	977.358744007640	142.671253301581	375.540435627279	1034.649569090474	114.679548563534	287.815881127585	1135.755460668870	148.017171549019	300.147290096684	1233.932946264121	60.996291937984	258.027993575722	1008.565927070951	1084.966906152358	216.907695133301	1145.854547276129	865.241702722577	215.058638225978	1149.513994630539	1087.804581758267	771.381900689778	1318.336113923425	892.347134076813	753.644174238025	
5	17.165428571429	903.538302920218	1009.361705116610	509.090574705448	1057.949371260149	1438.819111139796	319.087076439153	1181.480078954231	1365.303268685899	464.086755631114	1123.733085758501	1435.775201610892	649.417654395549	1068.554672043315	1497.945643678278	474.857248860723	1138.767182303982	945.898559084451	604.649681483501	1100.126419701292	967.330157166551	332.074317449863	1159.507677507696	739.449633701606	574.332906368772	1069.011497738472	634.877601594869	635.291364907910	1138.637648510142	577.821496647925	554.809378922089	1130.623298878005	491.874976480487	559.239987597007	1195.741306997022	801.920659791910	354.711354922848	1160.445566759472	670.345784592768	273.713541498956	1274.198846072701	619.780086736743	324.339380112327	1298.675648270744	535.955891657187	313.617648600983	1250.654954209240	458.646783215864	309.412108511252	1124.643134748228	376.835344708177	272.103313997175	1158.887816981150	248.961811819930	321.001420892557	1101.444652549312	404.943718499833	563.794498270733	1026.503055078062	300.687312469468	620.437798488854	1069.529922562829	206.885162368377	555.159760470162	935.488829453971	43.772177309327	512.472410548900	1105.254281994602	97.621539580082	560.567769541167	1014.267230537098	37.313776096129	592.440566348930	1222.767818177115	42.428678029144	594.325663247100	1005.202379421420	127.688864262398	374.318236370234	1063.283761481482	104.310772627939	285.774658670868	1162.184310750622	144.054670007226	297.530652183112	1265.510690822576	63.928920086197	253.643449117602	1002.649698715024	1084.460394258493	219.889868033293	1121.368787244032	853.365351536975	218.011567593873	1161.993555804874	1089.358929215275	771.820885056079	1343.172889730676	905.311868736070	750.997857389077	
6	17.176785714286	902.781053493694	1009.590146278915	510.263588096385	1056.474704224190	1438.382099154517	319.782446589842	1180.713175533301	1365.184543725475	464.321530568579	1123.878452763868	1435.909757586852	649.869876865199	1067.757146539655	1497.806502111819	475.533041088953	1138.188026396917	945.741944036903	605.252010803850	1098.909964756566	967.155821545276	332.564741419107	1155.779033162950	738.578618518896	574.765165363349	1063.669878803116	634.997595191262	636.084634733346	1132.051811454541	576.975831792465	555.640483178072	1122.826102305990	491.484046546176	560.007204067175	1194.551971358509	802.818551614474	355.465550630164	1160.461334945717	670.888470409253	273.986330157834	1274.108247715680	621.223293216383	325.127150437248	1300.033554504589	539.159655184176	313.990761296511	1255.997893889215	461.071359997837	309.164437463354	1135.408044297021	371.565064302639	271.602469905403	1178.290580130940	245.435594194913	319.409588214833	1093.336782238587	404.811342197920	564.363475055715	1018.031046030575	300.766433303610	621.005252775527	1060.800268997567	206.937632094747	555.557005903261	926.387725838250	43.835008776443	512.603775702576	1096.212854520620	97.600464422457	560.682163089086	1005.150453553911	37.324776158211	592.485289212885	1213.661258415332	42.228003800112	594.372848347768	1033.293112837951	113.686104359316	372.758450782929	1092.145592098673	94.900487066813	283.589387918124	1188.458280082913	140.874359246249	295.014681738998	1296.594861927882	67.842729627681	249.745521947955	996.757793653511	1084.041572443054	222.494442700897	1097.118360990921	843.395960185858	220.829564249656	1174.077871942520	1091.133134268147	772.000139622240	1366.791982242012	919.102425358551	748.088382662856	
